:SAMPLES-PER-SECOND 30
:FULLY-SPECIFIED
:DEGREES
473
root  -44.1813 30.9987 29.7629 161.3 46.7064 176.441
RightUpLeg  7.12593 -17.752 -7.5394
RightLeg  49.8558 -0.308535 -0.369607
RightFoot  -29.8978 -0.0054018 0.523646
RightToes  -22.0627 -0.096474 -0.193172
Spine  -3.40876 1.95315 -1.94409
Spine1  -6.77516 3.94202 -3.29661
HEad  -108.06 -1.226 5.89017
LeftShoulder1  -1.94126e-019 -3.10601e-018 -2.51263e-017
LeftArm  -10.4147 14.0023 -79.8538
LeftForeArm  18.6568 -48.3276 -11.2919
LeftHand  -0.216872 3.38015 11.9783
RightShoulder  -4.96962e-017 0 -2.36833e-017
RightArm  -7.65663 -19.9763 79.2482
RightForeArm  46.9397 38.8929 6.1724
RightHand  -0.0976278 -0.364782 -2.22691
LeftUpLeg  -14.6905 -5.29899 12.0397
LeftLeg  43.3412 -0.22894 -0.197124
LeftFoot  3.7294 0.00784853 0.173397
LeftToes  -45.5535 2.40056e-006 -7.68412e-008
474
root  -44.1949 30.8771 29.8036 160.559 47.7745 176.46
RightUpLeg  7.17796 -17.2276 -7.55966
RightLeg  50.9358 0.0524284 0.00502801
RightFoot  -30.2605 -0.0748486 0.264124
RightToes  -22.2168 -0.0965756 -0.193309
Spine  -3.53609 1.92503 -1.47786
Spine1  -6.97416 3.9352 -2.35924
HEad  -107.292 -3.07054 9.80309
LeftShoulder1  -1.94126e-019 -3.10601e-018 -2.51263e-017
LeftArm  -8.65528 10.714 -83.6175
LeftForeArm  13.4978 -46.7278 -11.0163
LeftHand  -0.0411733 5.16114 13.9196
RightShoulder  -4.96962e-017 0 -2.36833e-017
RightArm  -5.96838 -18.6997 78.7454
RightForeArm  47.4553 40.9297 6.72161
RightHand  -0.0809074 0.202529 -1.7126
LeftUpLeg  -14.2299 -4.67486 12.4282
LeftLeg  44.348 -0.0311425 -0.0343333
LeftFoot  3.24163 0.00697055 0.19822
LeftToes  -45.5294 2.40056e-006 -7.68412e-008
475
root  -44.2464 30.8011 29.8383 159.242 49.4374 175.786
RightUpLeg  7.1551 -15.7875 -7.74722
RightLeg  51.7522 0.587006 0.599003
RightFoot  -30.6017 -0.185737 -0.142425
RightToes  -22.4722 -0.0967073 -0.193724
Spine  -3.62255 1.80583 -0.949616
Spine1  -7.09725 3.74277 -1.28095
HEad  -106.063 -4.25587 13.9124
LeftShoulder1  -1.94126e-019 -3.10601e-018 -2.51263e-017
LeftArm  -4.8406 8.59927 -86.7537
LeftForeArm  12.1534 -46.273 -10.9315
LeftHand  0.0496467 5.97065 13.2832
RightShoulder  -4.96962e-017 0 -2.36833e-017
RightArm  -4.91121 -16.6782 78.4933
RightForeArm  47.4787 41.4656 6.88026
RightHand  -0.0729023 0.692075 -1.47029
LeftUpLeg  -13.2439 -3.70548 12.4715
LeftLeg  44.8434 0.337725 0.287548
LeftFoot  3.26318 0.00525876 0.230985
LeftToes  -46.2672 2.40056e-006 -7.68412e-008
476
root  -44.2814 30.8232 29.8065 158.02 50.1841 175.206
RightUpLeg  7.68374 -15.2146 -8.27723
RightLeg  51.9358 0.851611 0.899016
RightFoot  -30.4186 -0.238394 -0.342594
RightToes  -22.8962 -0.0968052 -0.19428
Spine  -3.5534 0.973258 -0.24744
Spine1  -6.91701 2.11422 0.196195
HEad  -104.352 -5.66582 16.7976
LeftShoulder1  -1.94126e-019 -3.10601e-018 -2.51263e-017
LeftArm  -0.14195 7.72723 -88.8321
LeftForeArm  15.7859 -47.3915 -11.1208
LeftHand  -0.118744 4.15218 9.8225
RightShoulder  -4.96962e-017 0 -2.36833e-017
RightArm  -3.76664 -14.1958 78.3156
RightForeArm  47.4 41.8523 7.00471
RightHand  -0.0960908 0.188561 -2.03322
LeftUpLeg  -12.1254 -3.84852 12.0652
LeftLeg  44.7106 1.05757 0.912464
LeftFoot  3.36674 0.00165121 0.286766
LeftToes  -45.8294 2.40056e-006 -7.68412e-008
477
root  -44.3488 30.828 29.9541 156.541 52.0133 174.01
RightUpLeg  7.08208 -13.0614 -7.74477
RightLeg  52.6469 0.638631 0.676013
RightFoot  -30.5652 -0.195961 -0.181118
RightToes  -21.7799 -0.0968053 -0.194836
Spine  -3.42604 0.285705 0.539391
Spine1  -6.65399 0.775779 1.82543
HEad  -103.545 -6.07321 19.128
LeftShoulder1  -1.94126e-019 -3.10601e-018 -2.51263e-017
LeftArm  5.36894 7.23172 -89.4196
LeftForeArm  22.5967 -49.7161 -11.5972
LeftHand  -0.25589 0.190013 5.74353
RightShoulder  -4.96962e-017 0 -2.36833e-017
RightArm  -2.77834 -11.5705 78.5026
RightForeArm  47.5983 41.8073 6.98017
RightHand  -0.115767 0.134631 -2.46314
LeftUpLeg  -10.9719 -2.30765 12.1715
LeftLeg  44.2485 1.2529 1.06484
LeftFoot  3.80685 -0.000510339 0.3122
LeftToes  -46.0609 2.40056e-006 -7.68412e-008
478
root  -44.467 30.8695 30.0405 155.099 53.1799 172.451
RightUpLeg  6.47075 -12.2471 -8.28513
RightLeg  53.2441 0.826903 0.910286
RightFoot  -30.3789 -0.234596 -0.329673
RightToes  -21.6622 -0.0966437 -0.195254
Spine  -3.36103 -0.704982 1.25816
Spine1  -6.55959 -1.1822 3.33505
HEad  -102.824 -5.93863 20.1795
LeftShoulder1  -1.94126e-019 -3.10601e-018 -2.51263e-017
LeftArm  11.9549 7.43881 -88.5334
LeftForeArm  32.2362 -53.8755 -12.8193
LeftHand  -0.291663 -3.82531 3.94016
RightShoulder  -4.96962e-017 0 -2.36833e-017
RightArm  -1.493 -9.85287 78.3205
RightForeArm  47.8207 42.8339 7.27751
RightHand  -0.109065 0.282236 -2.27661
LeftUpLeg  -10.1645 -1.59145 11.6025
LeftLeg  43.4918 1.88985 1.56708
LeftFoot  4.37166 -0.00635134 0.385514
LeftToes  -45.6127 2.40056e-006 -7.68412e-008
479
root  -44.6302 30.9212 30.2689 153.757 54.7868 170.956
RightUpLeg  5.36546 -10.4225 -7.96976
RightLeg  53.7225 0.99479 1.1253
RightFoot  -30.1606 -0.267851 -0.461114
RightToes  -21.0613 -0.0962564 -0.195394
Spine  -3.12176 -1.50884 1.92638
Spine1  -6.15078 -2.7682 4.71832
HEad  -101.913 -6.73253 21.2027
LeftShoulder1  -1.94126e-019 -3.10601e-018 -2.51263e-017
LeftArm  17.852 7.22979 -86.9464
LeftForeArm  43.0468 -57.8492 -14.1318
LeftHand  -0.451399 -7.12009 4.5397
RightShoulder  -4.96962e-017 0 -2.36833e-017
RightArm  -0.23993 -8.70193 77.7874
RightForeArm  47.4089 43.9013 7.62559
RightHand  -0.108468 0.39067 -2.2331
LeftUpLeg  -9.44629 -0.32427 11.5435
LeftLeg  42.5222 2.33786 1.87408
LeftFoot  5.46404 -0.0142853 0.480625
LeftToes  -45.8429 2.40056e-006 -7.68412e-008
480
root  -44.8617 30.9566 30.4524 153.068 55.1383 169.529
RightUpLeg  3.94962 -10.7015 -8.73701
RightLeg  54.4383 1.35192 1.58993
RightFoot  -29.7931 -0.339663 -0.747137
RightToes  -21.3202 -0.0955793 -0.195117
Spine  -3.01303 -2.49795 2.37319
Spine1  -6.01282 -4.72869 5.66995
HEad  -100.599 -6.32985 21.7983
LeftShoulder1  -1.94126e-019 -3.10601e-018 -2.51263e-017
LeftArm  21.4492 7.12617 -85.6303
LeftForeArm  49.7743 -61.3024 -15.8792
LeftHand  -0.630979 -8.30148 5.71703
RightShoulder  -4.96962e-017 0 -2.36833e-017
RightArm  1.16021 -8.78782 76.2972
RightForeArm  46.9292 46.1654 8.40192
RightHand  -0.136689 0.59588 -2.72702
LeftUpLeg  -9.74142 -0.264286 10.759
LeftLeg  41.5836 3.10556 2.40826
LeftFoot  6.48932 -0.0270414 0.638521
LeftToes  -45.3355 2.40056e-006 -7.68412e-008
481
root  -45.1161 31.0272 30.7138 152.486 55.812 168.138
RightUpLeg  2.34916 -10.5542 -9.09299
RightLeg  54.8113 1.79966 2.16527
RightFoot  -29.1874 -0.420359 -1.08879
RightToes  -21.9867 -0.0945486 -0.194284
Spine  -2.75271 -3.00939 2.58437
Spine1  -5.54726 -5.7411 6.10204
HEad  -99.7584 -6.67246 22.935
LeftShoulder1  -1.94126e-019 -3.10601e-018 -2.51263e-017
LeftArm  23.6576 6.57358 -84.6368
LeftForeArm  49.862 -63.2018 -17.4284
LeftHand  -0.601438 -9.44618 5.09153
RightShoulder  -4.96962e-017 0 -2.36833e-017
RightArm  1.49573 -10.1716 74.2694
RightForeArm  46.4271 48.1535 9.13686
RightHand  -0.19206 0.594532 -3.80631
LeftUpLeg  -9.85705 0.0601503 10.2654
LeftLeg  40.1189 3.77722 2.77782
LeftFoot  7.73011 -0.04501 0.827738
LeftToes  -45.2951 2.40056e-006 -7.68412e-008
482
root  -45.4132 31.0755 31.0668 152.21 56.8465 166.604
RightUpLeg  -0.107698 -9.79258 -8.92526
RightLeg  55.3728 2.22943 2.75092
RightFoot  -28.6328 -0.494853 -1.4173
RightToes  -21.8564 -0.0931003 -0.192756
Spine  -2.4833 -2.986 2.66644
Spine1  -5.01434 -5.66432 6.2233
HEad  -99.1885 -7.19829 24.3017
LeftShoulder1  -1.94126e-019 -3.10601e-018 -2.51263e-017
LeftArm  24.9159 5.52734 -84.2743
LeftForeArm  47.2556 -63.1209 -17.639
LeftHand  -0.483807 -9.21391 4.23148
RightShoulder  -4.96962e-017 0 -2.36833e-017
RightArm  0.573002 -12.8512 71.7298
RightForeArm  45.3277 49.5633 9.74267
RightHand  -0.263655 0.365678 -5.38498
LeftUpLeg  -10.4363 0.897846 10.0595
LeftLeg  38.736 4.981 3.47982
LeftFoot  8.80114 -0.0750572 1.13684
LeftToes  -44.2274 2.40056e-006 -7.68412e-008
483
root  -45.6992 31.1649 31.4171 152.809 57.387 165.948
RightUpLeg  -2.2407 -10.3875 -8.71712
RightLeg  55.5396 2.52656 3.14425
RightFoot  -27.7762 -0.525355 -1.60563
RightToes  -21.7058 -0.0911704 -0.190394
Spine  -2.26555 -2.87642 2.64602
Spine1  -4.56746 -5.414 6.12215
HEad  -98.109 -8.28979 25.3655
LeftShoulder1  -1.94126e-019 -3.10601e-018 -2.51263e-017
LeftArm  25.2138 4.70697 -84.5198
LeftForeArm  45.9752 -61.6042 -16.4929
LeftHand  -0.466676 -9.34589 4.06446
RightShoulder  -4.96962e-017 0 -2.36833e-017
RightArm  -1.97027 -16.6139 69.2275
RightForeArm  44.1275 48.9038 9.54947
RightHand  -0.33169 0.31055 -6.8219
LeftUpLeg  -11.1236 1.13191 10.0306
LeftLeg  37.3669 7.59404 5.02803
LeftFoot  9.11854 -0.119939 1.66553
LeftToes  -41.5133 2.40056e-006 -7.68412e-008
484
root  -45.9934 31.287 31.8002 153.181 57.6806 165.488
RightUpLeg  -3.78256 -10.8069 -8.43231
RightLeg  55.2506 2.89 3.56848
RightFoot  -26.8756 -0.55562 -1.80934
RightToes  -21.0319 -0.0872854 -0.185067
Spine  -1.8615 -2.84031 2.61174
Spine1  -3.76529 -5.34501 5.97676
HEad  -96.3217 -9.40623 26.1166
LeftShoulder1  -1.94126e-019 -3.10601e-018 -2.51263e-017
LeftArm  23.4832 4.34963 -85.1493
LeftForeArm  46.0743 -59.0284 -14.5966
LeftHand  -0.474715 -9.39464 4.11594
RightShoulder  -4.96962e-017 0 -2.36833e-017
RightArm  -5.45656 -19.831 67.0872
RightForeArm  42.9555 44.8759 8.15535
RightHand  -0.361282 -0.0484951 -7.89002
LeftUpLeg  -11.368 1.22282 10.0756
LeftLeg  36.1281 10.6003 6.66489
LeftFoot  7.07302 -0.0993236 1.76857
LeftToes  -39.3473 2.40056e-006 -7.68412e-008
